<?xml version="1.0" standalone="no"?>
<!DOCTYPE svg PUBLIC "-//W3C//DTD SVG 20010904//EN"
 "http://www.w3.org/TR/2001/REC-SVG-20010904/DTD/svg10.dtd">
<svg version="1.0" xmlns="http://www.w3.org/2000/svg"
 width="310.000000pt" height="310.000000pt" viewBox="0 0 310.000000 310.000000"
 preserveAspectRatio="xMidYMid meet">
<metadata>
Created by potrace 1.11, written by Peter Selinger 2001-2013
</metadata>
<g transform="translate(0.000000,310.000000) scale(0.100000,-0.100000)"
fill="#000000" stroke="none">
<path d="M0 1550 l0 -1550 1550 0 1550 0 0 1550 0 1550 -1550 0 -1550 0 0
-1550z m1346 748 c10 -16 -25 -38 -62 -38 -20 0 -44 -9 -60 -24 -23 -19 -29
-34 -35 -92 -11 -99 -10 -506 1 -524 8 -13 55 -15 328 -14 176 0 327 4 336 7
16 6 17 29 14 264 -3 240 -5 261 -25 305 -23 51 -62 78 -112 78 -42 0 -61 9
-61 30 0 17 15 18 292 14 283 -4 336 -10 298 -34 -8 -5 -30 -10 -48 -10 -62 0
-111 -38 -130 -100 -17 -52 -32 -411 -34 -810 -1 -315 0 -359 15 -387 23 -43
71 -78 132 -95 31 -8 50 -19 50 -28 0 -22 -559 -19 -563 3 -2 10 10 17 45 22
65 10 79 19 105 68 20 39 22 60 28 312 3 149 2 275 -2 281 -20 27 -641 25
-668 -2 -12 -12 -25 -380 -16 -476 10 -98 32 -134 106 -169 97 -46 81 -50
-210 -51 -210 -1 -265 2 -265 12 0 7 23 19 50 27 28 8 59 24 71 34 50 46 62
175 71 709 6 400 -2 540 -33 588 -19 30 -73 62 -102 62 -17 0 -23 5 -20 18 4
22 67 28 315 30 128 1 184 -1 189 -10z"/>
</g>
</svg>
